<?xml version="1.0" encoding="UTF-8" standalone="no"?>
<!-- Created with Serif DrawPlus 11, 0, 3, 23 (Feb 25, 14:12:55) (http://www.serif.com) -->

<svg version="1.1" xmlns="http://www.w3.org/2000/svg" xmlns:xlink="http://www.w3.org/1999/xlink" width="513.332" height="513.332">
	<defs>
		<clipPath id="clip_dp_001" clipPathUnits="userSpaceOnUse">
			<path d="M 86.4493,170.409 L 598.445,170.409 L 598.445,597.78 L 86.4493,597.78 Z "/>
		</clipPath>
	</defs>
	<g id="selection" transform="matrix(1,0,0,1,-85.7827,-127.429)">
		<g id="dp_group001">
			<g id="selection" clip-path="url(#clip_dp_001)">
				<path id="dp_path001" fill="#4f4fc0" fill-rule="evenodd" d="M 92.6653,374.091 C 89.2467,379.789 86.448,385.445 86.448,386.66 C 86.448,388.161 87.1573,389.471 88.6693,390.771 C 90.2,392.083 92.22,395.679 95.1507,402.333 C 97.7773,408.277 100.273,413.051 104.361,418.077 C 108.875,423.628 111.891,429.84 115.659,435.857 C 121.633,445.397 127.137,455.268 132.171,465.333 C 135.547,469.956 138.171,474.527 140.743,479.677 C 159.524,517.229 182.464,553.077 203.297,589.539 L 205.836,593.349 C 207.96,596.531 217.08,597.157 261.317,597.157 C 310.695,597.157 314.532,596.828 318.337,592.209 C 321.575,588.285 322.803,585.608 323.953,580.647 C 327.175,566.771 336.669,554.991 345.544,544.079 C 354.936,522.271 367.624,501.935 379.839,481.581 C 389.887,464.836 399.359,447.731 409.049,430.777 C 414.417,421.383 419.992,412.116 425.56,402.836 C 431.836,392.376 437.947,381.82 443.473,370.951 C 446.435,365.137 448.652,361.679 452.364,357.112 C 458.98,348.981 465.115,338.425 469.453,328.888 C 471.296,324.845 471.731,324.883 475.491,329.391 C 482.833,338.203 487.195,349.712 492.876,359.653 C 496.176,365.433 499.488,371.208 502.808,376.976 C 507.076,384.401 507.228,386.06 504.077,390.816 C 502.108,393.789 499.293,399.197 497.824,402.836 C 493.099,414.531 485.375,425.071 478.904,435.857 C 474.123,443.829 469.547,451.917 464.932,459.991 C 461.936,465.835 458.811,471.369 454.641,476.501 C 450.124,482.049 447.112,488.261 443.34,494.281 C 441.244,497.627 439.469,501.627 439.4,503.173 C 439.312,505.001 437.103,509.469 433.049,516.005 C 427.371,525.159 422.015,534.463 416.668,543.813 C 406.18,561.297 396.925,579.261 387.204,597.157 L 420.987,597.157 C 452.232,597.157 454.963,596.776 457.312,592.077 C 459.456,587.789 461.623,583.516 463.795,579.244 C 467.529,571.899 472.472,565.671 477.635,559.32 C 478.173,547.975 488.391,536.895 494.145,527.303 C 502.439,513.48 510.281,499.384 518.275,485.389 C 522.323,478.648 526.272,471.948 529.839,464.939 C 532.8,459.121 535.017,455.663 538.729,451.099 C 543.243,445.547 546.259,439.336 550.028,433.319 C 552.124,429.971 553.9,425.971 553.971,424.427 C 554.259,418.351 560.724,411.6 564,406.647 L 568.948,399.157 C 571.667,395.039 574.6,390.043 575.461,388.051 C 577.907,382.395 571.56,373.501 569.08,368.541 C 563.777,359.259 558.536,350.005 553.705,340.468 C 549.523,332.208 544.4,325.139 538.597,318.005 C 531.536,300.527 522.555,284.375 510.656,269.741 C 501.285,246.548 486.613,224.571 472.816,203.696 C 470.796,199.653 468.607,195.843 466.204,192 C 464.105,188.655 462.331,184.655 462.26,183.112 C 462.176,181.309 460.811,178.536 458.449,175.357 C 455.016,170.736 451.355,170.409 402.911,170.409 C 357.556,170.409 350.605,170.943 347.513,174.655 C 344.997,177.669 343.793,179.912 343.359,182.407 C 341.908,190.64 334.667,198.937 330.303,205.972 C 317.228,227.767 304.811,249.951 292.201,272.016 C 282.639,287.96 273.484,304.137 264.26,320.279 C 254.695,336.223 245.543,352.4 236.319,368.541 C 232.271,375.287 228.321,381.987 224.756,388.996 C 221.017,396.341 216.079,402.571 210.916,408.92 C 210.392,420.037 200.564,430.775 194.828,440.092 C 191.953,444.765 191.032,445.033 188.732,441.869 C 184.301,435.779 181.255,428.601 177.895,421.885 C 171.837,411.797 165.951,401.623 160.115,391.405 C 156.287,385.939 157.364,381.659 160.431,375.527 C 173.369,349.647 188.947,325.072 203.297,299.96 C 206.292,294.112 209.419,288.577 213.588,283.445 C 218.104,277.897 221.116,271.685 224.888,265.665 C 226.984,262.32 228.759,258.32 228.829,256.775 C 228.905,255.231 231.247,249.967 234.043,245.081 C 238.369,237.511 243.543,230.757 249.019,224.017 C 249.391,216.136 254.961,209.817 259.179,203.433 C 266.204,192.801 272.277,181.868 277.848,170.409 C 254.691,170.409 231.532,170.409 208.377,170.409 C 204.989,177.185 201.601,183.957 198.216,190.731 C 191.44,202.584 184.668,214.44 177.895,226.295 C 168.329,242.235 159.177,258.416 149.953,274.557 C 145.716,282.817 140.56,289.96 134.712,297.153 C 134.209,307.748 125.781,318.708 119.337,326.632 C 112.336,335.241 105.668,346.933 101.557,357.112 C 100.088,360.751 96.088,368.389 92.6653,374.091 Z M 233.909,491.477 L 228.961,500.369 C 225.148,511.095 232.068,521.305 238.759,529.616 C 245.78,538.341 260.635,536.195 270.743,536.195 C 282.116,536.195 284.799,525.649 289.663,517.143 C 293.807,509.889 298.063,502.716 302.361,495.551 C 307.665,486.267 312.907,477.015 317.736,467.477 C 321.829,459.395 324.012,455.877 327.897,451.099 C 334.431,443.061 339.516,433.68 344.143,424.427 C 345.688,421.339 347.523,418.464 349.356,415.536 C 351.452,412.189 354.368,406.472 355.839,402.836 C 358.969,395.087 363.824,388.181 368.405,381.244 C 375.181,369.391 381.955,357.535 388.727,345.681 C 394.784,335.591 400.671,325.419 406.511,315.199 C 411.853,305.847 417.213,296.544 422.888,287.389 C 426.655,281.313 429.211,276.259 429.371,274.557 C 429.537,272.82 430.892,270.153 432.937,267.553 C 439.301,259.468 431.84,250.145 427.641,243.296 C 421.932,233.976 419.839,232.543 411.131,231.999 C 404.832,231.603 398.6,231.375 392.291,231.375 C 384.011,231.375 381.669,235.129 378.567,241.797 C 372.413,251.629 366.691,261.617 361.051,271.753 C 359.523,274.808 358.041,277.643 356.024,280.405 C 350.605,287.824 347.108,296.831 343.005,305.04 C 337.375,314.42 331.519,323.588 325.488,332.716 C 322.399,338.893 318.732,344.643 315.061,350.496 C 313.2,354.612 311.121,358.349 308.712,362.192 C 306.616,365.537 303.699,371.256 302.229,374.895 C 299.099,382.644 294.243,389.549 289.663,396.485 C 282.887,408.339 276.113,420.193 269.34,432.047 C 262.753,443.028 256.033,453.92 249.284,464.805 C 247.261,468.848 245.072,472.659 242.668,476.501 C 239.593,481.415 236.731,486.411 233.909,491.477 Z "/>
				<path id="dp_path002" fill="#80a5ff" fill-rule="evenodd" d="M 115.939,374.091 C 112.52,379.789 109.721,385.445 109.721,386.66 C 109.721,388.161 110.429,389.471 111.941,390.771 C 113.473,392.083 115.493,395.679 118.424,402.333 C 121.051,408.277 123.547,413.051 127.635,418.077 C 132.148,423.628 135.163,429.84 138.932,435.857 C 144.907,445.397 150.411,455.268 155.443,465.333 C 158.82,469.956 161.443,474.527 164.016,479.677 C 182.797,517.229 205.737,553.077 226.569,589.539 L 229.108,593.349 C 231.232,596.531 240.352,597.157 284.591,597.157 C 333.968,597.157 337.804,596.828 341.609,592.209 C 344.848,588.285 346.075,585.608 347.225,580.647 C 350.448,566.771 359.943,554.991 368.817,544.079 C 378.208,522.271 390.896,501.935 403.111,481.581 C 413.159,464.836 422.632,447.731 432.321,430.777 C 437.689,421.383 443.264,412.116 448.832,402.836 C 455.109,392.376 461.219,381.82 466.745,370.951 C 469.708,365.137 471.925,361.679 475.637,357.112 C 482.252,348.981 488.388,338.425 492.727,328.888 C 494.568,324.845 495.003,324.883 498.763,329.391 C 506.105,338.203 510.467,349.712 516.148,359.653 C 519.449,365.433 522.76,371.208 526.081,376.976 C 530.349,384.401 530.501,386.06 527.351,390.816 C 525.381,393.789 522.565,399.197 521.096,402.836 C 516.371,414.531 508.648,425.071 502.176,435.857 C 497.395,443.829 492.819,451.917 488.204,459.991 C 485.208,465.835 482.083,471.369 477.913,476.501 C 473.397,482.049 470.384,488.261 466.613,494.281 C 464.517,497.627 462.743,501.627 462.672,503.173 C 462.584,505.001 460.376,509.469 456.323,516.005 C 450.644,525.159 445.287,534.463 439.941,543.813 C 429.453,561.297 420.197,579.261 410.476,597.157 L 444.26,597.157 C 475.504,597.157 478.235,596.776 480.585,592.077 C 482.729,587.789 484.895,583.516 487.068,579.244 C 490.803,571.899 495.744,565.671 500.907,559.32 C 501.445,547.975 511.663,536.895 517.417,527.303 C 525.711,513.48 533.553,499.384 541.548,485.389 C 545.596,478.648 549.545,471.948 553.111,464.939 C 556.073,459.121 558.289,455.663 562.003,451.099 C 566.516,445.547 569.532,439.336 573.3,433.319 C 575.396,429.971 577.173,425.971 577.244,424.427 C 577.532,418.351 583.997,411.6 587.272,406.647 L 592.22,399.157 C 594.94,395.039 597.873,390.043 598.733,388.051 C 601.179,382.395 594.832,373.501 592.352,368.541 C 587.049,359.259 581.808,350.005 576.979,340.468 C 572.795,332.208 567.672,325.139 561.869,318.005 C 554.809,300.527 545.827,284.375 533.928,269.741 C 524.557,246.548 509.885,224.571 496.089,203.696 C 494.069,199.653 491.88,195.843 489.476,192 C 487.377,188.655 485.603,184.655 485.533,183.112 C 485.448,181.309 484.083,178.536 481.721,175.357 C 478.289,170.736 474.627,170.409 426.184,170.409 C 380.829,170.409 373.877,170.943 370.787,174.655 C 368.269,177.669 367.065,179.912 366.631,182.407 C 365.181,190.64 357.94,198.937 353.576,205.972 C 340.501,227.767 328.083,249.951 315.473,272.016 C 305.911,287.96 296.757,304.137 287.532,320.279 C 277.967,336.223 268.816,352.4 259.591,368.541 C 255.543,375.287 251.593,381.987 248.028,388.996 C 244.291,396.341 239.351,402.571 234.189,408.92 C 233.664,420.037 223.836,430.775 218.101,440.092 C 215.227,444.765 214.304,445.033 212.005,441.869 C 207.573,435.779 204.527,428.601 201.167,421.885 C 195.111,411.797 189.223,401.623 183.387,391.405 C 179.559,385.939 180.636,381.659 183.703,375.527 C 196.643,349.647 212.22,325.072 226.569,299.96 C 229.565,294.112 232.691,288.577 236.86,283.445 C 241.376,277.897 244.389,271.685 248.161,265.665 C 250.257,262.32 252.031,258.32 252.101,256.775 C 252.177,255.231 254.519,249.967 257.315,245.081 C 261.641,237.511 266.816,230.757 272.291,224.017 C 272.663,216.136 278.235,209.817 282.452,203.433 C 289.476,192.801 295.549,181.868 301.121,170.409 C 277.964,170.409 254.804,170.409 231.649,170.409 C 228.261,177.185 224.875,183.957 221.489,190.731 C 214.713,202.584 207.94,214.44 201.167,226.295 C 191.601,242.235 182.451,258.416 173.225,274.557 C 168.989,282.817 163.832,289.96 157.984,297.153 C 157.483,307.748 149.053,318.708 142.611,326.632 C 135.609,335.241 128.94,346.933 124.831,357.112 C 123.36,360.751 119.36,368.389 115.939,374.091 Z M 257.183,491.477 L 252.235,500.369 C 248.42,511.095 255.34,521.305 262.031,529.616 C 269.052,538.341 283.908,536.195 294.015,536.195 C 305.389,536.195 308.072,525.649 312.935,517.143 C 317.079,509.889 321.336,502.716 325.635,495.551 C 330.937,486.267 336.179,477.015 341.008,467.477 C 345.101,459.395 347.285,455.877 351.169,451.099 C 357.703,443.061 362.789,433.68 367.415,424.427 C 368.961,421.339 370.795,418.464 372.628,415.536 C 374.724,412.189 377.641,406.472 379.111,402.836 C 382.241,395.087 387.097,388.181 391.677,381.244 C 398.453,369.391 405.227,357.535 412,345.681 C 418.056,335.591 423.944,325.419 429.783,315.199 C 435.125,305.847 440.485,296.544 446.161,287.389 C 449.927,281.313 452.483,276.259 452.644,274.557 C 452.811,272.82 454.164,270.153 456.209,267.553 C 462.573,259.468 455.112,250.145 450.915,243.296 C 445.205,233.976 443.112,232.543 434.404,231.999 C 428.104,231.603 421.873,231.375 415.563,231.375 C 407.283,231.375 404.941,235.129 401.839,241.797 C 395.687,251.629 389.963,261.617 384.324,271.753 C 382.795,274.808 381.313,277.643 379.297,280.405 C 373.877,287.824 370.38,296.831 366.279,305.04 C 360.648,314.42 354.792,323.588 348.76,332.716 C 345.672,338.893 342.004,344.643 338.335,350.496 C 336.472,354.612 334.393,358.349 331.984,362.192 C 329.888,365.537 326.972,371.256 325.501,374.895 C 322.371,382.644 317.516,389.549 312.935,396.485 C 306.159,408.339 299.385,420.193 292.613,432.047 C 286.025,443.028 279.307,453.92 272.556,464.805 C 270.533,468.848 268.344,472.659 265.941,476.501 C 262.867,481.415 260.003,486.411 257.183,491.477 Z "/>
			</g>
		</g>
		<path id="dp_path002" fill="none" fill-rule="evenodd" stroke="none" stroke-width="1.33333" d="M 86.4493,128.096 L 598.447,128.096 L 598.447,640.093 L 86.4493,640.093 Z "/>
	</g>
</svg>