<?xml version="1.0" encoding="UTF-8" standalone="no"?>

<svg
   version="1.1"
   width="513.33197"
   height="513.33197"
   id="svg2"
   xmlns="http://www.w3.org/2000/svg"
   xmlns:svg="http://www.w3.org/2000/svg">
  <defs
     id="defs1">
    <clipPath
       id="clip_dp_001"
       clipPathUnits="userSpaceOnUse">
      <path
         d="M 86.4493,170.409 H 598.445 V 597.78 H 86.4493 Z"
         id="path1" />
    </clipPath>
  </defs>
  <g
     id="g2"
     transform="translate(-85.7827,-127.429)">
    <g
       id="dp_group001">
      <g
         id="selection"
         clip-path="url(#clip_dp_001)">
        <path
           id="dp_path001"
           fill="#4f4fc0"
           fill-rule="evenodd"
           d="m 92.6653,374.091 c -3.4186,5.698 -6.2173,11.354 -6.2173,12.569 0,1.501 0.7093,2.811 2.2213,4.111 1.5307,1.312 3.5507,4.908 6.4814,11.562 2.6266,5.944 5.1223,10.718 9.2103,15.744 4.514,5.551 7.53,11.763 11.298,17.78 5.974,9.54 11.478,19.411 16.512,29.476 3.376,4.623 6,9.194 8.572,14.344 18.781,37.552 41.721,73.4 62.554,109.862 l 2.539,3.81 c 2.124,3.182 11.244,3.808 55.481,3.808 49.378,0 53.215,-0.329 57.02,-4.948 3.238,-3.924 4.466,-6.601 5.616,-11.562 3.222,-13.876 12.716,-25.656 21.591,-36.568 9.392,-21.808 22.08,-42.144 34.295,-62.498 10.048,-16.745 19.52,-33.85 29.21,-50.804 5.368,-9.394 10.943,-18.661 16.511,-27.941 6.276,-10.46 12.387,-21.016 17.913,-31.885 2.962,-5.814 5.179,-9.272 8.891,-13.839 6.616,-8.131 12.751,-18.687 17.089,-28.224 1.843,-4.043 2.278,-4.005 6.038,0.503 7.342,8.812 11.704,20.321 17.385,30.262 3.3,5.78 6.612,11.555 9.932,17.323 4.268,7.425 4.42,9.084 1.269,13.84 -1.969,2.973 -4.784,8.381 -6.253,12.02 -4.725,11.695 -12.449,22.235 -18.92,33.021 -4.781,7.972 -9.357,16.06 -13.972,24.134 -2.996,5.844 -6.121,11.378 -10.291,16.51 -4.517,5.548 -7.529,11.76 -11.301,17.78 -2.096,3.346 -3.871,7.346 -3.94,8.892 -0.088,1.828 -2.297,6.296 -6.351,12.832 -5.678,9.154 -11.034,18.458 -16.381,27.808 -10.488,17.484 -19.743,35.448 -29.464,53.344 h 33.783 c 31.245,0 33.976,-0.381 36.325,-5.08 2.144,-4.288 4.311,-8.561 6.483,-12.833 3.734,-7.345 8.677,-13.573 13.84,-19.924 0.538,-11.345 10.756,-22.425 16.51,-32.017 8.294,-13.823 16.136,-27.919 24.13,-41.914 4.048,-6.741 7.997,-13.441 11.564,-20.45 2.961,-5.818 5.178,-9.276 8.89,-13.84 4.514,-5.552 7.53,-11.763 11.299,-17.78 2.096,-3.348 3.872,-7.348 3.943,-8.892 0.288,-6.076 6.753,-12.827 10.029,-17.78 l 4.948,-7.49 c 2.719,-4.118 5.652,-9.114 6.513,-11.106 2.446,-5.656 -3.901,-14.55 -6.381,-19.51 -5.303,-9.282 -10.544,-18.536 -15.375,-28.073 -4.182,-8.26 -9.305,-15.329 -15.108,-22.463 -7.061,-17.478 -16.042,-33.63 -27.941,-48.264 -9.371,-23.193 -24.043,-45.17 -37.84,-66.045 -2.02,-4.043 -4.209,-7.853 -6.612,-11.696 -2.099,-3.345 -3.873,-7.345 -3.944,-8.888 -0.084,-1.803 -1.449,-4.576 -3.811,-7.755 -3.433,-4.621 -7.094,-4.948 -55.538,-4.948 -45.355,0 -52.306,0.534 -55.398,4.246 -2.516,3.014 -3.72,5.257 -4.154,7.752 -1.451,8.233 -8.692,16.53 -13.056,23.565 -13.075,21.795 -25.492,43.979 -38.102,66.044 -9.562,15.944 -18.717,32.121 -27.941,48.263 -9.565,15.944 -18.717,32.121 -27.941,48.262 -4.048,6.746 -7.998,13.446 -11.563,20.455 -3.739,7.345 -8.677,13.575 -13.84,19.924 -0.524,11.117 -10.352,21.855 -16.088,31.172 -2.875,4.673 -3.796,4.941 -6.096,1.777 -4.431,-6.09 -7.477,-13.268 -10.837,-19.984 -6.058,-10.088 -11.944,-20.262 -17.78,-30.48 -3.828,-5.466 -2.751,-9.746 0.316,-15.878 12.938,-25.88 28.516,-50.455 42.866,-75.567 2.995,-5.848 6.122,-11.383 10.291,-16.515 4.516,-5.548 7.528,-11.76 11.3,-17.78 2.096,-3.345 3.871,-7.345 3.941,-8.89 0.076,-1.544 2.418,-6.808 5.214,-11.694 4.326,-7.57 9.5,-14.324 14.976,-21.064 0.372,-7.881 5.942,-14.2 10.16,-20.584 7.025,-10.632 13.098,-21.565 18.669,-33.024 -23.157,0 -46.316,0 -69.471,0 -3.388,6.776 -6.776,13.548 -10.161,20.322 -6.776,11.853 -13.548,23.709 -20.321,35.564 -9.566,15.94 -18.718,32.121 -27.942,48.262 -4.237,8.26 -9.393,15.403 -15.241,22.596 -0.503,10.595 -8.931,21.555 -15.375,29.479 -7.001,8.609 -13.669,20.301 -17.78,30.48 -1.469,3.639 -5.469,11.277 -8.8917,16.979 z m 141.2437,117.386 -4.948,8.892 c -3.813,10.726 3.107,20.936 9.798,29.247 7.021,8.725 21.876,6.579 31.984,6.579 11.373,0 14.056,-10.546 18.92,-19.052 4.144,-7.254 8.4,-14.427 12.698,-21.592 5.304,-9.284 10.546,-18.536 15.375,-28.074 4.093,-8.082 6.276,-11.6 10.161,-16.378 6.534,-8.038 11.619,-17.419 16.246,-26.672 1.545,-3.088 3.38,-5.963 5.213,-8.891 2.096,-3.347 5.012,-9.064 6.483,-12.7 3.13,-7.749 7.985,-14.655 12.566,-21.592 6.776,-11.853 13.55,-23.709 20.322,-35.563 6.057,-10.09 11.944,-20.262 17.784,-30.482 5.342,-9.352 10.702,-18.655 16.377,-27.81 3.767,-6.076 6.323,-11.13 6.483,-12.832 0.166,-1.737 1.521,-4.404 3.566,-7.004 6.364,-8.085 -1.097,-17.408 -5.296,-24.257 -5.709,-9.32 -7.802,-10.753 -16.51,-11.297 -6.299,-0.396 -12.531,-0.624 -18.84,-0.624 -8.28,0 -10.622,3.754 -13.724,10.422 -6.154,9.832 -11.876,19.82 -17.516,29.956 -1.528,3.055 -3.01,5.89 -5.027,8.652 -5.419,7.419 -8.916,16.426 -13.019,24.635 -5.63,9.38 -11.486,18.548 -17.517,27.676 -3.089,6.177 -6.756,11.927 -10.427,17.78 -1.861,4.116 -3.94,7.853 -6.349,11.696 -2.096,3.345 -5.013,9.064 -6.483,12.703 -3.13,7.749 -7.986,14.654 -12.566,21.59 -6.776,11.854 -13.55,23.708 -20.323,35.562 -6.587,10.981 -13.307,21.873 -20.056,32.758 -2.023,4.043 -4.212,7.854 -6.616,11.696 -3.075,4.914 -5.937,9.91 -8.759,14.976 z" />
        <path
           id="dp_path002"
           fill="#80a5ff"
           fill-rule="evenodd"
           d="m 115.939,374.091 c -3.419,5.698 -6.218,11.354 -6.218,12.569 0,1.501 0.708,2.811 2.22,4.111 1.532,1.312 3.552,4.908 6.483,11.562 2.627,5.944 5.123,10.718 9.211,15.744 4.513,5.551 7.528,11.763 11.297,17.78 5.975,9.54 11.479,19.411 16.511,29.476 3.377,4.623 6,9.194 8.573,14.344 18.781,37.552 41.721,73.4 62.553,109.862 l 2.539,3.81 c 2.124,3.182 11.244,3.808 55.483,3.808 49.377,0 53.213,-0.329 57.018,-4.948 3.239,-3.924 4.466,-6.601 5.616,-11.562 3.223,-13.876 12.718,-25.656 21.592,-36.568 9.391,-21.808 22.079,-42.144 34.294,-62.498 10.048,-16.745 19.521,-33.85 29.21,-50.804 5.368,-9.394 10.943,-18.661 16.511,-27.941 6.277,-10.46 12.387,-21.016 17.913,-31.885 2.963,-5.814 5.18,-9.272 8.892,-13.839 6.615,-8.131 12.751,-18.687 17.09,-28.224 1.841,-4.043 2.276,-4.005 6.036,0.503 7.342,8.812 11.704,20.321 17.385,30.262 3.301,5.78 6.612,11.555 9.933,17.323 4.268,7.425 4.42,9.084 1.27,13.84 -1.97,2.973 -4.786,8.381 -6.255,12.02 -4.725,11.695 -12.448,22.235 -18.92,33.021 -4.781,7.972 -9.357,16.06 -13.972,24.134 -2.996,5.844 -6.121,11.378 -10.291,16.51 -4.516,5.548 -7.529,11.76 -11.3,17.78 -2.096,3.346 -3.87,7.346 -3.941,8.892 -0.088,1.828 -2.296,6.296 -6.349,12.832 -5.679,9.154 -11.036,18.458 -16.382,27.808 -10.488,17.484 -19.744,35.448 -29.465,53.344 h 33.784 c 31.244,0 33.975,-0.381 36.325,-5.08 2.144,-4.288 4.31,-8.561 6.483,-12.833 3.735,-7.345 8.676,-13.573 13.839,-19.924 0.538,-11.345 10.756,-22.425 16.51,-32.017 8.294,-13.823 16.136,-27.919 24.131,-41.914 4.048,-6.741 7.997,-13.441 11.563,-20.45 2.962,-5.818 5.178,-9.276 8.892,-13.84 4.513,-5.552 7.529,-11.763 11.297,-17.78 2.096,-3.348 3.873,-7.348 3.944,-8.892 0.288,-6.076 6.753,-12.827 10.028,-17.78 l 4.948,-7.49 c 2.72,-4.118 5.653,-9.114 6.513,-11.106 2.446,-5.656 -3.901,-14.55 -6.381,-19.51 -5.303,-9.282 -10.544,-18.536 -15.373,-28.073 -4.184,-8.26 -9.307,-15.329 -15.11,-22.463 -7.06,-17.478 -16.042,-33.63 -27.941,-48.264 -9.371,-23.193 -24.043,-45.17 -37.839,-66.045 -2.02,-4.043 -4.209,-7.853 -6.613,-11.696 -2.099,-3.345 -3.873,-7.345 -3.943,-8.888 -0.085,-1.803 -1.45,-4.576 -3.812,-7.755 -3.432,-4.621 -7.094,-4.948 -55.537,-4.948 -45.355,0 -52.307,0.534 -55.397,4.246 -2.518,3.014 -3.722,5.257 -4.156,7.752 -1.45,8.233 -8.691,16.53 -13.055,23.565 -13.075,21.795 -25.493,43.979 -38.103,66.044 -9.562,15.944 -18.716,32.121 -27.941,48.263 -9.565,15.944 -18.716,32.121 -27.941,48.262 -4.048,6.746 -7.998,13.446 -11.563,20.455 -3.737,7.345 -8.677,13.575 -13.839,19.924 -0.525,11.117 -10.353,21.855 -16.088,31.172 -2.874,4.673 -3.797,4.941 -6.096,1.777 -4.432,-6.09 -7.478,-13.268 -10.838,-19.984 -6.056,-10.088 -11.944,-20.262 -17.78,-30.48 -3.828,-5.466 -2.751,-9.746 0.316,-15.878 12.94,-25.88 28.517,-50.455 42.866,-75.567 2.996,-5.848 6.122,-11.383 10.291,-16.515 4.516,-5.548 7.529,-11.76 11.301,-17.78 2.096,-3.345 3.87,-7.345 3.94,-8.89 0.076,-1.544 2.418,-6.808 5.214,-11.694 4.326,-7.57 9.501,-14.324 14.976,-21.064 0.372,-7.881 5.944,-14.2 10.161,-20.584 7.024,-10.632 13.097,-21.565 18.669,-33.024 -23.157,0 -46.317,0 -69.472,0 -3.388,6.776 -6.774,13.548 -10.16,20.322 -6.776,11.853 -13.549,23.709 -20.322,35.564 -9.566,15.94 -18.716,32.121 -27.942,48.262 -4.236,8.26 -9.393,15.403 -15.241,22.596 -0.501,10.595 -8.931,21.555 -15.373,29.479 -7.002,8.609 -13.671,20.301 -17.78,30.48 -1.471,3.639 -5.471,11.277 -8.892,16.979 z m 141.244,117.386 -4.948,8.892 c -3.815,10.726 3.105,20.936 9.796,29.247 7.021,8.725 21.877,6.579 31.984,6.579 11.374,0 14.057,-10.546 18.92,-19.052 4.144,-7.254 8.401,-14.427 12.7,-21.592 5.302,-9.284 10.544,-18.536 15.373,-28.074 4.093,-8.082 6.277,-11.6 10.161,-16.378 6.534,-8.038 11.62,-17.419 16.246,-26.672 1.546,-3.088 3.38,-5.963 5.213,-8.891 2.096,-3.347 5.013,-9.064 6.483,-12.7 3.13,-7.749 7.986,-14.655 12.566,-21.592 6.776,-11.853 13.55,-23.709 20.323,-35.563 6.056,-10.09 11.944,-20.262 17.783,-30.482 5.342,-9.352 10.702,-18.655 16.378,-27.81 3.766,-6.076 6.322,-11.13 6.483,-12.832 0.167,-1.737 1.52,-4.404 3.565,-7.004 6.364,-8.085 -1.097,-17.408 -5.294,-24.257 -5.71,-9.32 -7.803,-10.753 -16.511,-11.297 -6.3,-0.396 -12.531,-0.624 -18.841,-0.624 -8.28,0 -10.622,3.754 -13.724,10.422 -6.152,9.832 -11.876,19.82 -17.515,29.956 -1.529,3.055 -3.011,5.89 -5.027,8.652 -5.42,7.419 -8.917,16.426 -13.018,24.635 -5.631,9.38 -11.487,18.548 -17.519,27.676 -3.088,6.177 -6.756,11.927 -10.425,17.78 -1.863,4.116 -3.942,7.853 -6.351,11.696 -2.096,3.345 -5.012,9.064 -6.483,12.703 -3.13,7.749 -7.985,14.654 -12.566,21.59 -6.776,11.854 -13.55,23.708 -20.322,35.562 -6.588,10.981 -13.306,21.873 -20.057,32.758 -2.023,4.043 -4.212,7.854 -6.615,11.696 -3.074,4.914 -5.938,9.91 -8.758,14.976 z" />
      </g>
    </g>
    <path
       id="path2"
       fill="none"
       fill-rule="evenodd"
       stroke="none"
       stroke-width="1.33333"
       d="M 86.4493,128.096 H 598.447 V 640.093 H 86.4493 Z" />
  </g>
</svg>
